<svg version="1.1" id="Layer_1" xmlns="http://www.w3.org/2000/svg" xmlns:xlink="http://www.w3.org/1999/xlink" x="0px" y="0px"
	 width="100%" viewBox="0 0 161 161" enable-background="new 0 0 161 161" xml:space="preserve">
<path fill="#EFFCF9" opacity="1.000000" stroke="none" 
	d="
M161.686432,82.764786 
	C162.000000,84.388893 162.000000,85.777779 162.000000,87.583336 
	C160.823486,89.532112 159.007523,90.171143 157.205154,91.432449 
	C148.500565,94.127945 140.306763,97.317886 131.855148,99.707962 
	C131.217667,99.888229 130.592911,100.117790 129.955643,100.301491 
	C127.185715,101.099953 126.812737,103.092926 127.691902,105.384628 
	C128.700668,108.014122 130.653519,106.898918 132.238586,106.088028 
	C138.736557,102.763748 144.954437,98.937202 151.188705,95.155441 
	C153.173645,93.951347 155.144547,92.758911 157.526733,91.539192 
	C158.908981,90.611885 160.058151,90.170395 161.691772,90.774475 
	C162.000000,92.388893 162.000000,93.777779 162.000000,95.583336 
	C161.489029,96.481819 161.057678,97.030075 160.416809,97.861679 
	C152.607742,103.242729 144.583496,107.590218 136.571671,111.953117 
	C131.159760,114.900192 130.904633,115.718239 133.384689,121.293770 
	C135.545883,126.152489 138.869629,130.386597 140.772858,135.738770 
	C140.422256,137.727966 139.429947,138.795181 137.575272,139.513550 
	C134.823013,139.446213 133.993500,137.502182 132.924164,135.850266 
	C130.210907,131.658875 127.805695,127.299194 125.917557,122.671425 
	C124.891602,120.156845 123.340027,119.390160 120.866051,120.827141 
	C114.977180,124.247604 108.922569,127.352486 102.752518,130.235107 
	C100.112244,131.468628 99.715599,133.354355 100.885948,135.966782 
	C103.202301,141.137268 106.038780,146.008636 109.018448,150.805969 
	C109.977585,152.350204 111.245392,153.721756 111.508408,155.980713 
	C110.591698,158.262772 108.855942,158.594376 106.653000,158.696838 
	C101.232254,155.158142 99.217606,149.537109 96.685669,144.412415 
	C92.325562,135.587463 92.663612,135.801559 83.775955,139.701294 
	C74.083717,143.954056 64.738846,148.311035 60.338150,159.301224 
	C58.495392,160.015564 57.101490,159.554749 55.439102,158.687775 
	C53.533844,156.394165 56.174316,154.578232 55.439709,152.131149 
	C52.328300,152.742676 49.434441,154.299881 45.890045,154.584152 
	C42.982342,153.959564 40.380249,153.406815 40.081413,149.935516 
	C45.049435,146.623123 50.560783,145.711166 55.704502,143.878906 
	C59.677467,142.463669 62.316715,140.136688 63.378845,136.112228 
	C65.289307,128.873383 66.751923,121.524605 67.466614,114.083641 
	C67.939926,109.155807 67.098473,108.797775 62.313782,108.381058 
	C56.910336,107.910461 53.256985,110.431747 48.976585,113.493103 
	C38.285393,121.139496 38.319408,131.328949 40.098042,142.396637 
	C40.462315,144.663361 41.585045,146.865509 40.392502,149.551361 
	C37.671864,151.606110 36.177044,149.859528 34.424587,147.982788 
	C32.513500,143.552078 32.671600,139.219437 32.607159,134.903214 
	C32.591026,133.822784 32.904469,132.366486 31.452299,131.942566 
	C30.405125,131.636856 29.650995,132.586182 28.909563,133.230164 
	C27.177073,134.734909 25.970781,136.891083 23.175995,137.560425 
	C21.388802,137.293518 20.575315,136.376129 20.070307,134.685730 
	C20.129604,130.307983 23.149899,128.155136 25.803425,126.083420 
	C30.735050,122.233109 33.163143,117.367973 33.437447,111.213539 
	C33.558174,108.504776 34.090919,105.812592 30.398788,104.955780 
	C26.795259,104.119514 23.159046,101.896011 20.295479,106.541016 
	C17.528622,111.029129 15.664158,116.102348 11.473372,120.073410 
	C8.465825,120.078621 8.161518,117.870369 7.441217,115.620056 
	C7.845687,111.476105 10.359532,108.697266 12.230844,105.658798 
	C14.101787,102.620934 14.378437,100.849030 10.283848,99.623947 
	C7.333737,98.741280 4.238776,98.046143 1.254558,96.231567 
	C1.000000,93.958336 1.000000,91.916664 1.000000,89.437500 
	C5.700367,88.661423 9.523448,91.433784 13.728834,92.769623 
	C17.356281,93.921875 19.191166,93.037865 20.884251,89.805183 
	C25.450571,81.086510 29.351046,72.108429 32.368198,62.744545 
	C33.776970,58.372356 33.014408,57.117836 28.388735,57.524841 
	C22.586639,58.035362 16.805798,58.609280 10.974605,58.402538 
	C8.990262,58.332180 6.962735,58.538712 4.842865,57.195240 
	C3.738585,55.118591 4.256762,53.550411 5.658558,51.778442 
	C13.280889,49.563637 20.835691,50.579865 28.239813,49.571014 
	C33.990719,48.787422 34.394352,48.854210 34.443512,43.034328 
	C34.511459,34.989506 32.979774,27.171925 30.970608,19.002346 
	C31.536591,16.341869 33.062611,15.182555 35.612766,14.719325 
	C38.405281,16.457777 38.829514,19.133446 39.518215,21.696228 
	C41.247620,28.131657 42.587517,34.604244 42.483002,41.334599 
	C42.449863,43.468624 41.509453,46.587887 44.693817,47.168091 
	C47.966129,47.764317 51.750904,47.551991 53.488564,44.111019 
	C56.404156,38.337467 59.019047,32.303303 60.594677,26.073000 
	C61.636253,21.954433 59.039036,17.731821 57.993565,13.578416 
	C57.348515,11.015780 56.089584,8.601007 56.370407,5.469191 
	C57.165874,3.773031 58.295723,3.196933 60.119316,3.191388 
	C66.085350,6.290657 64.375618,12.518592 66.671135,16.745262 
	C69.348892,11.298426 72.666801,5.869760 77.747284,1.252903 
	C79.714355,1.000000 81.428719,1.000000 83.571533,1.000000 
	C85.465118,3.326787 83.532684,4.758005 82.442032,6.246661 
	C79.491402,10.273989 76.796944,14.483221 73.826454,18.485010 
	C69.080841,24.878220 70.301132,31.684044 71.980751,38.568783 
	C72.538483,40.854923 74.243324,41.222878 76.284142,40.587120 
	C80.731728,39.201591 85.145554,37.714951 89.532738,36.148232 
	C92.023216,35.258842 92.789932,33.141506 93.663788,30.897556 
	C97.092407,22.093357 99.661499,12.891358 105.573746,4.832250 
	C107.804878,3.909637 109.431778,4.510653 111.104965,6.076516 
	C111.298264,10.230794 109.053955,13.266275 107.516533,16.511055 
	C105.954208,19.808369 104.440514,23.114311 103.220757,26.546122 
	C102.753967,27.859465 101.341278,29.378429 102.686440,30.609856 
	C103.687950,31.526691 105.295685,30.671003 106.434067,30.105528 
	C114.404839,26.146193 123.246231,23.892952 130.569000,17.850910 
	C134.369461,18.042229 136.109833,20.371693 137.264648,23.680433 
	C131.482773,28.638020 130.828308,35.694275 127.965042,42.434761 
	C135.177063,41.289429 140.162216,36.089760 147.134460,35.341022 
	C149.429916,36.099739 150.652878,37.335159 150.470367,39.906502 
	C147.131699,43.632236 142.779282,44.984615 138.707230,46.738636 
	C125.472649,52.439407 124.411499,53.887112 124.447510,68.235748 
	C124.463737,74.705086 124.110603,81.187904 124.656708,87.640793 
	C125.062050,92.430450 126.145294,93.261383 130.722778,91.988686 
	C139.032410,89.678314 147.213745,86.937057 155.232925,83.735992 
	C157.196213,82.952286 159.064209,81.592400 161.686432,82.764786 
z"/>
<path fill="#6BD6AA" opacity="1.000000" stroke="none" 
	d="
M162.000000,82.533134 
	C153.587143,85.899483 145.176865,88.806458 136.759323,91.692261 
	C135.036865,92.282776 133.304276,92.857216 131.547134,93.330658 
	C123.967934,95.372818 123.344559,95.115730 123.087242,87.425446 
	C122.732170,76.812828 122.106857,66.172356 123.972870,55.596992 
	C124.348518,53.468075 124.926689,51.936974 127.039818,50.944088 
	C134.513000,47.432701 141.911148,43.761639 149.667999,40.005699 
	C152.555710,39.897678 152.945404,42.156956 153.869171,43.765095 
	C157.910782,50.800743 160.521957,58.336296 161.754593,66.705490 
	C162.000000,72.022095 162.000000,77.044182 162.000000,82.533134 
z"/>
<path fill="#000000" opacity="0.000000" stroke="none"
	d="
M162.000000,66.531342 
	C160.598618,68.080299 160.172806,66.721527 160.110519,65.967072 
	C159.328400,56.493145 154.645554,48.469910 150.330368,40.022247 
	C150.337433,37.964558 148.596649,37.365013 147.432587,36.082870 
	C143.470871,32.401802 140.149933,28.553650 136.966705,24.197311 
	C135.205231,22.009237 133.486694,20.168894 131.462250,18.248411 
	C129.458618,18.683884 128.289795,17.605082 127.137131,16.716928 
	C122.253143,12.953684 116.270042,11.093021 111.130020,7.164898 
	C109.562851,6.228803 108.162064,5.623455 106.413437,5.081338 
	C102.457664,5.240206 98.687317,5.787770 96.785683,1.366122 
	C117.597412,1.000000 138.195389,1.072879 158.791595,0.915268 
	C161.625519,0.893581 162.093674,1.570356 162.075592,4.270956 
	C161.937683,24.867443 162.000000,45.465271 162.000000,66.531342 
z"/>
<path fill="#ffffff" opacity="0.000000" stroke="none"
	d="
M159.705505,97.270660 
	C160.400040,96.432480 160.940323,95.928841 161.740295,95.712601 
	C162.000000,116.929626 161.928757,137.859787 162.084198,158.788254 
	C162.105194,161.614899 161.440109,162.094879 158.732376,162.076172 
	C138.468140,161.936157 118.202507,162.000000 97.468658,162.000000 
	C95.886887,160.062225 97.319656,159.349213 98.685760,158.885406 
	C100.790833,158.170715 102.924301,157.399323 105.643021,157.771317 
	C107.597656,157.498230 109.138435,157.137238 110.850769,156.465134 
	C112.084343,154.272354 114.012192,153.617981 115.822975,152.847336 
	C123.507545,149.576904 129.742981,144.105484 136.778900,139.212646 
	C138.033600,138.273895 138.954926,137.465393 140.000610,136.372375 
	C143.017044,130.063507 147.950195,125.410873 150.989532,119.402939 
	C154.548126,112.368523 156.886917,104.942612 159.705505,97.270660 
z"/>
<path fill="#000000" opacity="0.000000" stroke="none"
	d="
M61.334595,3.956424 
	C59.848652,4.175488 58.513985,3.534181 57.423386,4.983816 
	C50.322845,8.555767 43.544838,11.989467 36.210300,15.015757 
	C34.599998,15.777989 33.359585,16.560167 31.988342,17.641632 
	C30.329903,22.094896 26.046436,23.662045 23.480591,26.876196 
	C18.318411,33.342690 13.216951,39.821964 9.706448,47.391548 
	C8.946109,49.031044 8.206511,50.730988 6.335442,51.991417 
	C6.168907,53.719334 4.479088,54.616898 4.979031,56.539940 
	C4.876467,60.118053 5.626759,63.658245 1.357454,65.214775 
	C1.000000,44.736408 1.073696,24.472242 0.915440,4.209888 
	C0.893335,1.379759 1.564837,0.904954 4.269014,0.924021 
	C24.199425,1.064550 44.131283,1.000000 64.531342,1.000000 
	C65.968369,4.221317 63.694584,3.937484 61.334595,3.956424 
z"/>
<path fill="#000000" opacity="0.000000" stroke="none"
	d="
M39.552078,150.024170 
	C40.932446,152.328201 43.531525,152.334900 45.555099,153.759949 
	C49.206676,153.951157 52.291054,154.692200 54.908245,157.502563 
	C56.456409,158.204941 57.810272,158.586197 59.525593,158.910828 
	C62.215767,158.537766 64.629684,158.024185 65.214005,161.624435 
	C44.736408,162.000000 24.472237,161.926315 4.209880,162.084579 
	C1.379724,162.106674 0.904956,161.435135 0.924022,158.730972 
	C1.064548,138.800568 1.000000,118.868713 1.000000,98.468658 
	C3.078882,96.830872 3.788062,98.418488 4.131596,99.834358 
	C5.304018,104.666557 7.618318,109.171944 8.159819,114.569504 
	C8.830860,116.531853 9.534893,118.091866 10.536119,119.802963 
	C14.959685,123.792198 17.535271,128.748627 20.661980,133.725525 
	C20.843359,135.241409 21.454159,136.129379 22.631710,137.018219 
	C27.428980,139.479187 31.234468,142.658066 34.698807,146.754303 
	C35.728516,148.911224 37.571552,149.320450 39.552078,150.024170 
z"/>
<path fill="#6BD7AB" opacity="1.000000" stroke="none"
	d="
M1.000000,65.468636 
	C2.964919,65.800613 2.775409,64.273033 3.001421,63.164028 
	C3.403534,61.190918 3.828490,59.222462 4.599032,57.072037 
	C13.452844,57.426373 21.908142,56.699581 30.344624,55.858387 
	C34.653919,55.428711 35.726364,57.127556 34.540611,61.013920 
	C31.048216,72.460457 26.084259,83.272133 20.475380,93.806900 
	C19.700085,95.263077 18.543816,96.141800 16.790228,95.391190 
	C11.782207,93.247574 6.324383,92.241951 1.300019,89.191483 
	C1.000000,81.312424 1.000000,73.624847 1.000000,65.468636 
z"/>
<path fill="#6CD7AB" opacity="1.000000" stroke="none" 
	d="
M96.536819,1.000000 
	C96.117188,2.675775 97.394844,2.954891 98.467239,2.946442 
	C100.964043,2.926769 103.186638,3.714496 105.705490,4.986428 
	C101.611557,14.529194 97.190590,23.926432 94.186455,33.911774 
	C93.953590,34.685749 93.655205,35.772797 93.068939,36.056496 
	C86.783768,39.097958 80.147903,41.311314 73.334656,42.598843 
	C70.686089,43.099354 70.903465,39.617870 70.213295,37.699871 
	C65.843231,25.555378 72.650108,16.825783 79.267387,8.034902 
	C80.849968,5.932475 82.412643,3.815057 83.992233,1.352267 
	C88.024544,1.000000 92.049088,1.000000 96.536819,1.000000 
z"/>
<path fill="#6BD7AB" opacity="1.000000" stroke="none" 
	d="
M65.468658,162.000000 
	C65.406570,158.176315 61.355053,161.234421 60.255905,159.009949 
	C61.441715,155.783157 62.974411,152.700714 64.559013,149.645203 
	C65.562752,147.709717 66.793541,146.055527 68.928474,145.085449 
	C75.989731,141.876968 83.116570,138.772247 89.957031,135.136276 
	C93.158058,133.434799 93.890053,134.709610 94.935814,137.257690 
	C97.826149,144.300171 101.333496,151.031433 105.907104,157.557159 
	C103.287727,160.236679 99.158775,158.816162 96.714920,161.652985 
	C86.645775,162.000000 76.291542,162.000000 65.468658,162.000000 
z"/>
<path fill="#70D9B0" opacity="1.000000" stroke="none" 
	d="
M61.101044,4.228488 
	C61.902035,1.967248 64.863861,4.068205 65.295990,1.307194 
	C69.024544,1.000000 73.049088,1.000000 77.536819,1.000000 
	C74.975197,7.220417 69.765137,11.975588 66.882401,18.501762 
	C63.086098,14.231478 64.407585,8.524311 61.101044,4.228488 
z"/>
<path fill="#6ED9AF" opacity="1.000000" stroke="none" 
	d="
M8.367991,114.738983 
	C5.643384,110.212593 3.814039,105.222191 3.044743,99.896896 
	C2.889297,98.820862 2.606961,97.998985 1.349486,97.710175 
	C1.000000,97.555557 1.000000,97.111107 1.000000,96.333328 
	C6.081367,95.192558 10.105458,98.570854 14.676920,99.754333 
	C17.302900,100.434143 14.947860,103.497704 14.087462,105.196754 
	C12.464068,108.402534 10.456847,111.413940 8.367991,114.738983 
z"/>
<path fill="#81E3C5" opacity="1.000000" stroke="none" 
	d="
M156.748581,91.044708 
	C157.481262,88.534348 159.708511,88.845245 161.646469,88.011871 
	C162.000000,88.750000 162.000000,89.500000 162.000000,90.625000 
	C161.259155,92.264153 159.671707,91.041885 158.508575,92.158615 
	C157.637253,92.118874 157.201035,91.845253 156.748581,91.044708 
z"/>
<path fill="#6BD7AC" opacity="1.000000" stroke="none" 
	d="
M39.945190,150.073196 
	C38.292233,142.119904 37.779018,134.043655 37.997101,125.882500 
	C38.064186,123.372116 38.621113,121.493660 40.613419,119.827103 
	C43.148670,117.706360 45.893475,115.570007 47.674091,112.865143 
	C52.286697,105.858307 59.103569,106.839325 65.861565,106.993874 
	C68.219185,107.047798 69.080772,107.962631 69.002251,110.293205 
	C68.654373,120.618378 66.844414,130.658371 63.391151,140.397781 
	C62.930099,141.698120 62.161106,142.948288 60.900726,143.385529 
	C54.205936,145.707916 47.746975,148.776062 40.269394,149.992432 
	C39.864529,150.055893 39.954491,150.026871 39.945190,150.073196 
z"/>
<path fill="#6DD8AD" opacity="1.000000" stroke="none" 
	d="
M118.193481,89.493210 
	C119.794533,96.381546 119.655548,96.802200 111.298088,98.524628 
	C105.786362,99.660568 100.129761,100.079796 94.553154,100.920296 
	C91.609566,101.363953 90.050362,100.819099 89.666397,97.301399 
	C88.939529,90.642387 88.959091,84.079391 89.872360,77.450768 
	C90.198212,75.085724 91.832962,74.040039 93.307571,72.877640 
	C100.327316,67.344147 107.796799,62.445374 115.294029,57.585842 
	C118.188423,55.709759 118.195824,57.340763 118.184952,59.573227 
	C118.137100,69.396576 118.153671,79.220238 118.193481,89.493210 
z"/>
<path fill="#6DD8AD" opacity="1.000000" stroke="none" 
	d="
M42.809647,100.214661 
	C40.994926,95.785034 43.467266,92.110672 44.538216,88.506935 
	C47.824760,77.447784 51.911930,66.623695 55.791641,55.745243 
	C57.136570,51.974159 63.278378,49.140625 66.889847,50.401245 
	C68.616928,51.004108 68.827141,52.419338 68.935104,54.004879 
	C69.510742,62.458424 70.106827,70.911049 70.781021,79.357193 
	C71.081001,83.115326 70.115211,86.124413 66.961639,88.522995 
	C64.073914,90.719376 61.106010,93.021454 58.884815,95.837975 
	C54.600403,101.270699 49.463501,102.580872 42.809647,100.214661 
z"/>
<path fill="#6BD7AB" opacity="1.000000" stroke="none" 
	d="
M136.817200,138.896698 
	C130.363556,147.270966 121.176216,151.812363 111.396309,156.090424 
	C106.132652,149.623444 102.465912,142.400101 98.958046,135.073746 
	C97.940842,132.949265 97.814873,131.379517 100.160896,130.140900 
	C107.598915,126.213898 114.974602,122.167511 122.446487,118.306824 
	C124.554237,117.217773 125.524574,118.480507 126.422493,120.532135 
	C129.207825,126.896255 132.223007,133.171158 136.817200,138.896698 
z"/>
<path fill="#6CD7AB" opacity="1.000000" stroke="none" 
	d="
M35.949684,15.361195 
	C42.178837,10.656990 48.867298,7.035174 56.719788,5.069779 
	C58.949299,11.287752 60.786205,17.430264 62.624043,23.572498 
	C63.018723,24.891562 62.907879,26.108637 62.321373,27.409460 
	C59.955864,32.655956 57.644348,37.928341 55.413269,43.233379 
	C53.786968,47.100388 46.337578,50.560352 42.550953,49.110371 
	C40.334671,48.261707 41.077911,46.338661 41.124962,44.848171 
	C41.442783,34.781181 39.398117,25.146164 35.949684,15.361195 
z"/>
<path fill="#6CD7AC" opacity="1.000000" stroke="none" 
	d="
M6.639805,52.293365 
	C11.669137,38.836540 19.748283,27.266962 31.554186,18.077595 
	C35.070377,26.888620 36.189388,36.149677 36.318302,45.615833 
	C36.369240,49.356304 35.294197,50.917263 31.296196,50.992809 
	C23.224667,51.145329 15.162951,51.817085 6.639805,52.293365 
z"/>
<path fill="#6ED8AE" opacity="1.000000" stroke="none" 
	d="
M121.066643,44.961571 
	C121.055542,47.820923 119.622772,49.424107 117.676315,50.537228 
	C109.752129,55.068829 102.262009,60.245724 94.930893,65.662720 
	C93.981743,66.364052 93.010841,67.400658 91.856720,66.657982 
	C90.536957,65.808716 91.869240,64.561562 91.838112,63.487057 
	C91.651398,57.043003 94.574295,51.202660 95.424538,44.963673 
	C95.916542,41.353352 98.407356,39.663002 101.425941,38.420288 
	C108.456146,35.526058 115.489326,32.639050 122.519569,29.744919 
	C123.425102,29.372143 124.414360,28.573195 125.304611,29.266977 
	C126.470039,30.175205 125.689011,31.320173 125.293762,32.421532 
	C123.846970,36.453106 122.482780,40.514328 121.066643,44.961571 
z"/>
<path fill="#6CD7AC" opacity="1.000000" stroke="none" 
	d="
M159.558075,97.104179 
	C160.287949,101.618362 158.542938,105.968727 156.803314,109.988480 
	C152.754196,119.344872 148.302460,128.596588 140.436584,135.963654 
	C136.823700,130.395645 133.499832,124.723373 130.772766,118.712578 
	C129.506470,115.921494 129.834183,114.240730 132.684128,112.648941 
	C141.617477,107.659348 150.409561,102.416801 159.558075,97.104179 
z"/>
<path fill="#6ED8AE" opacity="1.000000" stroke="none" 
	d="
M120.337769,102.497971 
	C120.795547,103.414009 120.942589,104.056786 121.073730,104.702789 
	C122.682861,112.629547 122.746498,112.747475 115.584618,116.652962 
	C110.079933,119.654762 104.382637,122.302650 98.780777,125.127319 
	C96.837097,126.107399 95.705093,126.277344 94.877937,123.533440 
	C93.488663,118.924828 92.223038,114.353653 91.514496,109.568451 
	C91.183167,107.330780 91.728844,106.189026 93.600342,105.997032 
	C102.459641,105.088181 111.059578,102.386093 120.337769,102.497971 
z"/>
<path fill="#6CD7AC" opacity="1.000000" stroke="none" 
	d="
M20.849556,133.699417 
	C16.263542,130.519196 13.886046,125.412140 10.914242,120.317703 
	C13.746657,114.961494 16.760149,110.023758 19.534203,104.954979 
	C21.092274,102.108055 23.275845,101.603500 26.166059,102.207764 
	C35.811268,104.224312 35.355900,104.157593 34.413815,114.103714 
	C33.901459,119.512955 31.329395,122.868813 27.622589,126.104660 
	C25.145458,128.267044 22.561584,130.396881 20.849556,133.699417 
z"/>
<path fill="#6FDAB1" opacity="1.000000" stroke="none" 
	d="
M25.632164,94.525665 
	C29.428385,86.049301 33.730701,78.222115 36.632023,69.732475 
	C37.977741,65.794716 38.775204,61.755054 39.898659,57.783325 
	C40.776878,54.678562 47.586884,52.281883 50.184177,54.189655 
	C51.504829,55.159710 50.721848,56.285301 50.365135,57.318649 
	C46.442795,68.681290 42.484093,80.031380 38.571365,91.397308 
	C38.252529,92.323486 38.203793,93.341904 38.021278,94.315903 
	C37.634151,96.381882 37.797741,98.986900 34.659748,98.870529 
	C31.136948,98.739883 27.038071,99.676903 25.632164,94.525665 
z"/>
<path fill="#6ED9AF" opacity="1.000000" stroke="none" 
	d="
M89.657562,123.206520 
	C91.537018,127.421585 91.096977,129.868820 86.422287,131.430023 
	C81.751457,132.989944 77.485382,135.757538 73.031822,137.975555 
	C72.013016,138.482941 70.890381,139.311371 69.807358,138.434433 
	C68.806190,137.623779 69.741158,136.572144 69.969177,135.683121 
	C72.074776,127.473724 73.010452,119.087425 73.904556,110.687881 
	C74.162201,108.267433 75.398979,106.424477 78.150307,107.021820 
	C80.997086,107.639885 85.159607,104.677345 86.454659,109.757332 
	C87.560349,114.094566 88.474457,118.480644 89.657562,123.206520 
z"/>
<path fill="#6ED8AE" opacity="1.000000" stroke="none" 
	d="
M110.696182,7.071377 
	C118.031837,9.534286 124.789268,12.782415 130.820267,18.036207 
	C130.203354,20.167057 128.880478,21.551960 126.678757,22.485231 
	C118.935738,25.767376 111.528954,29.833248 103.470589,32.390697 
	C102.531738,32.688652 101.553444,33.375130 100.669312,32.685841 
	C99.431740,31.721003 100.402245,30.594442 100.740990,29.538782 
	C103.223351,21.802881 106.958214,14.613455 110.696182,7.071377 
z"/>
<path fill="#6ED9AF" opacity="1.000000" stroke="none" 
	d="
M85.463600,44.570114 
	C87.355461,44.151207 88.813789,42.056034 90.316940,43.652988 
	C91.387482,44.790333 90.144135,46.477539 89.895714,47.895657 
	C88.611069,55.228859 86.253380,62.364422 85.927444,69.878479 
	C85.849838,71.667786 78.351067,79.613777 76.772705,79.676826 
	C74.537277,79.766106 75.078041,77.974197 75.128296,76.828247 
	C75.472878,68.970749 74.635101,61.207127 73.105675,53.537361 
	C72.321907,49.606903 73.687202,47.650166 77.438324,46.819588 
	C80.019722,46.248016 82.542221,45.410469 85.463600,44.570114 
z"/>
<path fill="#70D9B0" opacity="1.000000" stroke="none" 
	d="
M136.550949,23.861034 
	C140.919830,27.087017 144.584412,30.618713 147.082153,35.589146 
	C141.388687,38.563293 135.629547,41.154163 129.907639,43.824833 
	C128.870758,44.308788 127.912880,45.367817 126.784554,44.424610 
	C125.793221,43.595917 126.701561,42.521374 127.005447,41.680809 
	C128.856613,36.560364 130.785629,31.467255 132.757187,26.391636 
	C133.337616,24.897337 134.490448,23.968788 136.550949,23.861034 
z"/>
<path fill="#72DBB4" opacity="1.000000" stroke="none" 
	d="
M156.260315,90.711517 
	C157.020279,90.979454 157.400558,91.293892 157.973358,91.926697 
	C149.574936,98.053070 140.444305,102.951324 131.459442,108.095741 
	C129.544449,109.192207 127.489296,109.925133 126.732750,107.083580 
	C126.041878,104.488747 123.446358,100.511963 127.635849,99.434311 
	C137.202881,96.973396 146.293976,93.068825 156.260315,90.711517 
z"/>
<path fill="#70D9B0" opacity="1.000000" stroke="none" 
	d="
M81.423912,82.194839 
	C83.275566,80.844528 84.120346,81.197517 84.221947,83.161255 
	C84.486740,88.279198 84.648834,93.406502 85.083954,98.510292 
	C85.443443,102.726990 82.463821,101.993645 80.143044,101.997086 
	C77.909752,102.000397 74.885284,103.129570 75.002937,98.828911 
	C75.172791,92.620331 73.816666,85.941330 81.423912,82.194839 
z"/>
<path fill="#72DBB4" opacity="1.000000" stroke="none" 
	d="
M34.855854,146.643295 
	C30.579876,144.439667 26.862679,141.129639 23.056831,137.470093 
	C25.319712,134.885086 27.706440,132.610046 30.088533,130.330185 
	C32.504807,128.017624 33.617222,129.138321 33.731663,131.875870 
	C33.932297,136.675369 33.619469,141.507324 34.855854,146.643295 
z"/>
<path fill="#74DDB8" opacity="1.000000" stroke="none" 
	d="
M67.802574,102.018539 
	C65.179726,101.707077 61.963947,103.278008 61.006569,101.224861 
	C60.045883,99.164604 63.396114,98.135826 64.839752,96.745186 
	C66.166710,95.466942 68.121094,92.205795 69.651382,94.239082 
	C70.937668,95.948151 71.515503,99.910332 67.802574,102.018539 
z"/>
<path fill="#81E3C5" opacity="1.000000" stroke="none" 
	d="
M66.049576,39.019073 
	C66.291794,40.877815 67.043236,42.521446 66.618675,43.762917 
	C65.873924,45.940708 63.596951,46.346977 61.596951,45.923012 
	C58.957489,45.363487 60.830292,43.471767 61.044106,42.331036 
	C61.339706,40.753929 62.223385,39.286751 62.857719,37.773540 
	C63.295052,36.730282 63.579979,35.209835 65.048569,35.595448 
	C66.485443,35.972729 65.776428,37.568260 66.049576,39.019073 
z"/>
<path fill="#74DDB8" opacity="1.000000" stroke="none" 
	d="
M55.218525,157.499573 
	C52.260208,156.593384 49.417877,155.363083 46.229687,153.986557 
	C48.641979,152.911575 51.413261,152.019455 54.152130,151.036972 
	C55.330227,150.614365 56.552998,149.322098 57.679420,150.600281 
	C58.739410,151.803085 57.478416,153.032150 56.974453,154.166550 
	C56.512211,155.207031 55.887589,156.175369 55.218525,157.499573 
z"/>
<path fill="#81E3C5" opacity="1.000000" stroke="none" 
	d="
M39.370491,112.225113 
	C39.607185,108.489220 38.827839,104.215195 44.687130,105.054314 
	C47.111168,105.401466 47.037014,106.794960 45.931591,107.993347 
	C44.161659,109.912117 42.741505,112.543549 39.370491,112.225113 
z"/>
</svg>