<svg width="659" height="455" viewBox="0 0 659 455" fill="none" xmlns="http://www.w3.org/2000/svg">
<g clip-path="url(#clip0_71_522)">
<path d="M391.036 13.9587C438.477 -13.835 498.689 0.735791 530.612 50.0177L529.526 50.8619C497.997 2.18828 438.521 -12.1991 391.663 15.2454C387.683 17.5776 383.84 20.1821 380.158 23.0434C331.972 60.4642 320.575 133.831 354.751 186.591L353.665 187.435C319.064 134.019 330.602 59.7392 379.387 21.8536C383.115 18.9573 387.006 16.3204 391.036 13.9587Z" fill="#E6E6E6"/>
<path d="M642.36 132.759L486.321 119.467C483.899 119.258 481.651 118.005 480.072 115.984C478.492 113.962 477.709 111.337 477.895 108.685L484.66 25.6739C484.851 23.0218 485.995 20.561 487.841 18.8313C489.687 17.1017 492.085 16.2445 494.507 16.4479L650.546 29.7394C652.968 29.9488 655.216 31.2016 656.795 33.223C658.375 35.2445 659.158 37.8695 658.972 40.5221L652.207 123.533C652.016 126.185 650.872 128.646 649.026 130.375C647.18 132.105 644.782 132.962 642.36 132.759Z" fill="#E6E6E6"/>
<path d="M605.501 114.006C604.317 114.006 603.128 113.955 601.935 113.853L501.093 105.264C499.077 105.092 497.111 104.487 495.308 103.484C493.505 102.48 491.901 101.098 490.586 99.415C489.271 97.7325 488.272 95.7828 487.645 93.6774C487.018 91.572 486.776 89.352 486.933 87.1443L489.233 54.779C489.554 50.322 491.477 46.1865 494.579 43.2798C497.682 40.3732 501.711 38.9327 505.782 39.2744L636.183 50.3822C640.253 50.7341 644.03 52.8394 646.685 56.2363C649.339 59.6332 650.655 64.0442 650.343 68.5018C649.463 80.8707 644.36 92.4226 636.05 100.856C627.739 109.289 616.832 113.984 605.501 114.006Z" fill="white"/>
<path d="M633.063 76.1116L505.23 65.2226C504.964 65.1999 504.704 65.12 504.466 64.9875C504.228 64.8549 504.016 64.6723 503.842 64.4501C503.669 64.2278 503.537 63.9703 503.454 63.6922C503.371 63.4142 503.339 63.1209 503.36 62.8293C503.381 62.5377 503.454 62.2534 503.575 61.9927C503.696 61.732 503.862 61.4999 504.065 61.3098C504.268 61.1196 504.504 60.9751 504.758 60.8845C505.012 60.7938 505.279 60.7589 505.546 60.7816L633.378 71.6705C633.645 71.6932 633.904 71.7731 634.143 71.9056C634.381 72.0382 634.593 72.2208 634.766 72.443C634.94 72.6653 635.072 72.9228 635.155 73.2009C635.238 73.479 635.269 73.7722 635.249 74.0638C635.228 74.3554 635.155 74.6397 635.034 74.9004C634.913 75.1611 634.746 75.3932 634.543 75.5833C634.34 75.7735 634.105 75.918 633.851 76.0086C633.597 76.0993 633.329 76.1343 633.063 76.1116Z" fill="#E6E6E6"/>
<path d="M579.984 80.4177L504.607 73.997C504.069 73.9509 503.57 73.6728 503.22 73.224C502.869 72.7753 502.696 72.1924 502.738 71.6037C502.78 71.015 503.033 70.4686 503.443 70.0845C503.852 69.7005 504.385 69.5103 504.922 69.5557L580.299 75.9765C580.565 75.999 580.825 76.0788 581.064 76.2113C581.302 76.3437 581.514 76.5263 581.688 76.7486C581.862 76.9709 581.994 77.2285 582.076 77.5067C582.159 77.7849 582.191 78.0782 582.171 78.3699C582.15 78.6617 582.077 78.9461 581.956 79.2069C581.835 79.4677 581.668 79.6998 581.465 79.89C581.261 80.0802 581.026 80.2247 580.772 80.3152C580.518 80.4058 580.25 80.4406 579.984 80.4177Z" fill="#E6E6E6"/>
<path d="M596.588 90.6596L503.983 82.7715C503.717 82.7489 503.457 82.6691 503.219 82.5367C502.981 82.4042 502.768 82.2216 502.595 81.9993C502.421 81.777 502.289 81.5194 502.206 81.2412C502.123 80.963 502.091 80.6697 502.112 80.378C502.133 80.0862 502.206 79.8018 502.327 79.541C502.448 79.2802 502.615 79.0481 502.818 78.8579C503.021 78.6677 503.256 78.5232 503.51 78.4327C503.765 78.3421 504.033 78.3073 504.299 78.3302L596.903 86.2184C597.441 86.2645 597.94 86.5425 598.291 86.9913C598.641 87.4401 598.814 88.0229 598.773 88.6116C598.731 89.2004 598.477 89.7468 598.067 90.1308C597.658 90.5149 597.126 90.7051 596.588 90.6596Z" fill="#E6E6E6"/>
<path d="M631.918 245.445L475.88 232.153C473.457 231.944 471.21 230.691 469.63 228.67C468.051 226.648 467.268 224.023 467.454 221.371L474.218 138.36C474.409 135.708 475.553 133.247 477.4 131.517C479.246 129.788 481.643 128.931 484.066 129.134L640.104 142.425C642.527 142.635 644.774 143.888 646.354 145.909C647.933 147.93 648.716 150.555 648.531 153.208L641.766 236.219C641.575 238.871 640.431 241.332 638.585 243.062C636.738 244.791 634.341 245.648 631.918 245.445Z" fill="#E6E6E6"/>
<path d="M595.02 226.69C593.852 226.69 592.677 226.64 591.494 226.539L490.652 217.95C488.635 217.778 486.67 217.173 484.867 216.17C483.064 215.166 481.459 213.784 480.144 212.101C478.829 210.418 477.83 208.469 477.203 206.363C476.577 204.258 476.335 202.038 476.492 199.83L478.791 167.465C478.948 165.257 479.501 163.105 480.417 161.131C481.334 159.157 482.596 157.4 484.133 155.96C485.67 154.52 487.451 153.426 489.374 152.74C491.297 152.054 493.324 151.789 495.341 151.961L625.741 163.068C627.758 163.24 629.723 163.845 631.526 164.849C633.329 165.852 634.934 167.235 636.249 168.917C637.564 170.6 638.563 172.549 639.19 174.655C639.816 176.76 640.058 178.98 639.901 181.188C639.008 193.559 633.895 205.109 625.579 213.54C617.263 221.971 606.353 226.665 595.02 226.69Z" fill="white"/>
<path d="M622.622 188.798L494.789 177.909C494.522 177.886 494.263 177.806 494.025 177.674C493.787 177.541 493.575 177.358 493.401 177.136C493.227 176.914 493.095 176.656 493.012 176.378C492.93 176.1 492.898 175.807 492.918 175.515C492.939 175.224 493.012 174.939 493.133 174.679C493.254 174.418 493.421 174.186 493.624 173.996C493.827 173.806 494.062 173.661 494.316 173.571C494.57 173.48 494.838 173.445 495.104 173.468L622.937 184.357C623.203 184.379 623.463 184.459 623.701 184.592C623.939 184.724 624.151 184.907 624.325 185.129C624.499 185.351 624.631 185.609 624.713 185.887C624.796 186.165 624.828 186.458 624.807 186.75C624.787 187.041 624.714 187.326 624.593 187.586C624.471 187.847 624.305 188.079 624.102 188.269C623.899 188.46 623.664 188.604 623.41 188.695C623.156 188.785 622.888 188.82 622.622 188.798Z" fill="#E6E6E6"/>
<path d="M569.542 193.104L494.165 186.683C493.899 186.661 493.639 186.581 493.401 186.448C493.162 186.316 492.95 186.133 492.777 185.911C492.603 185.689 492.471 185.431 492.388 185.153C492.305 184.875 492.273 184.581 492.294 184.29C492.314 183.998 492.387 183.713 492.509 183.453C492.63 183.192 492.797 182.96 493 182.77C493.203 182.579 493.438 182.435 493.692 182.344C493.946 182.254 494.214 182.219 494.481 182.242L569.857 188.662C570.395 188.709 570.894 188.987 571.245 189.435C571.595 189.884 571.768 190.467 571.727 191.056C571.685 191.644 571.431 192.191 571.022 192.575C570.612 192.959 570.08 193.149 569.542 193.104Z" fill="#E6E6E6"/>
<path d="M586.146 203.346L493.542 195.457C493.004 195.412 492.505 195.134 492.154 194.685C491.803 194.236 491.63 193.653 491.672 193.064C491.713 192.475 491.967 191.928 492.377 191.544C492.787 191.16 493.32 190.97 493.857 191.016L586.462 198.904C587 198.95 587.499 199.228 587.85 199.677C588.201 200.126 588.374 200.709 588.332 201.298C588.29 201.887 588.037 202.433 587.627 202.817C587.217 203.201 586.684 203.391 586.146 203.346Z" fill="#E6E6E6"/>
<path d="M235.001 202.074C233.02 197.159 231.943 191.865 231.831 186.495C231.719 181.124 232.574 175.782 234.347 170.773C236.12 165.765 238.777 161.187 242.166 157.303C245.555 153.419 249.61 150.303 254.098 148.134C258.587 145.966 263.422 144.786 268.327 144.663C273.232 144.54 278.111 145.477 282.685 147.418C287.26 149.36 291.44 152.269 294.988 155.98C298.535 159.691 301.381 164.13 303.361 169.045L302.142 169.634C300.232 164.895 297.488 160.614 294.067 157.035C290.646 153.457 286.615 150.651 282.204 148.779C277.792 146.906 273.087 146.004 268.357 146.122C263.627 146.24 258.965 147.378 254.637 149.469C250.308 151.561 246.398 154.565 243.13 158.311C239.862 162.057 237.3 166.471 235.59 171.301C233.879 176.131 233.055 181.282 233.163 186.461C233.271 191.64 234.31 196.745 236.22 201.485L235.001 202.074Z" fill="#E6E6E6"/>
<path d="M622.254 430.204C637.508 422.289 648.87 406.365 647.098 388.865C633.413 400.999 614.781 407.775 595.546 407.613C588.055 407.549 579.665 406.715 574.221 411.318C570.833 414.182 569.305 418.729 569.112 423.262C568.919 427.794 569.923 432.381 570.92 436.909L570.617 437.982C588.528 439.23 606.999 438.119 622.254 430.204Z" fill="#F2F2F2"/>
<path d="M646.722 388.822C640.822 401.427 630.593 411.933 617.881 418.082C615.096 419.505 612.13 420.459 609.085 420.912C605.983 421.267 602.849 420.818 599.934 419.602C597.172 418.517 594.448 417.103 591.518 416.673C590.084 416.454 588.623 416.554 587.225 416.967C585.826 417.379 584.518 418.097 583.379 419.076C580.671 421.382 579.056 424.572 577.593 427.754C575.968 431.288 574.34 434.988 571.158 437.396C570.773 437.688 571.309 438.295 571.694 438.003C577.23 433.814 578.029 426.237 582.428 421.163C583.462 419.882 584.748 418.874 586.189 418.214C587.63 417.555 589.189 417.261 590.748 417.355C593.739 417.596 596.548 419.051 599.338 420.173C602.174 421.4 605.218 421.947 608.263 421.777C611.334 421.481 614.34 420.644 617.167 419.298C623.313 416.497 629.003 412.62 634.014 407.82C639.549 402.578 644.119 396.227 647.478 389.106C647.681 388.671 646.925 388.389 646.722 388.822Z" fill="white"/>
<path d="M622.14 416.306C623.746 418.38 625.902 419.855 628.309 420.525C630.716 421.195 633.254 421.026 635.569 420.043C636.013 419.839 635.65 419.127 635.206 419.331C633.052 420.25 630.688 420.407 628.448 419.779C626.209 419.151 624.205 417.77 622.719 415.83C622.407 415.415 621.83 415.893 622.14 416.306Z" fill="white"/>
<path d="M601.276 420.328C601.572 417.866 602.34 415.5 603.531 413.386C604.721 411.273 606.307 409.459 608.184 408.065C608.568 407.772 608.032 407.165 607.648 407.458C605.698 408.913 604.051 410.804 602.817 413.006C601.583 415.208 600.789 417.672 600.487 420.234C600.433 420.723 601.222 420.813 601.276 420.328Z" fill="white"/>
<path d="M638.644 402.043C637.91 401.426 637.333 400.614 636.967 399.684C636.6 398.753 636.457 397.736 636.55 396.728C636.611 396.241 635.822 396.151 635.761 396.635C635.663 397.749 635.822 398.872 636.225 399.9C636.627 400.928 637.26 401.829 638.065 402.519C638.137 402.597 638.232 402.646 638.333 402.658C638.434 402.67 638.536 402.644 638.622 402.585C638.66 402.553 638.69 402.513 638.712 402.467C638.734 402.421 638.746 402.371 638.748 402.319C638.75 402.268 638.742 402.216 638.724 402.169C638.706 402.121 638.679 402.078 638.644 402.043Z" fill="white"/>
<path d="M596.769 351.865C596.722 352.167 596.675 352.47 596.622 352.774C595.969 356.828 594.972 360.805 593.643 364.655C593.545 364.954 593.442 365.256 593.335 365.551C589.975 374.873 584.865 383.318 578.336 390.341C575.676 393.21 572.807 395.837 569.758 398.196C565.507 401.49 560.601 404.707 557.911 409.145C557.626 409.602 557.37 410.081 557.146 410.578L569.266 437.427C569.324 437.477 569.376 437.53 569.434 437.58L569.869 438.67C570.038 438.558 570.209 438.439 570.378 438.328C570.476 438.263 570.571 438.193 570.669 438.129C570.734 438.084 570.798 438.039 570.859 438.003C570.881 437.988 570.902 437.973 570.918 437.96C570.979 437.924 571.031 437.883 571.086 437.849C572.05 437.185 573.009 436.512 573.965 435.832C573.972 435.829 573.972 435.829 573.975 435.821C581.244 430.617 588.081 424.735 593.699 417.95C593.868 417.745 594.043 417.539 594.206 417.323C596.703 414.273 598.939 410.98 600.887 407.483C601.936 405.582 602.884 403.615 603.726 401.594C605.886 396.372 607.166 390.765 607.504 385.044C608.189 373.584 605.084 361.734 597.365 352.561C597.168 352.326 596.973 352.097 596.769 351.865Z" fill="#F2F2F2"/>
<path d="M596.459 352.048C599.835 366.222 598.672 381.171 592.956 393.892C591.767 396.716 590.13 399.287 588.119 401.485C585.966 403.645 583.319 405.128 580.459 405.775C577.72 406.486 574.807 406.894 572.347 408.259C571.14 408.921 570.094 409.886 569.293 411.075C568.492 412.264 567.959 413.644 567.739 415.102C567.137 418.656 567.9 422.315 568.772 425.879C569.74 429.835 570.809 433.934 569.915 437.855C569.807 438.33 570.584 438.528 570.692 438.054C572.247 431.232 568.161 424.335 568.317 417.434C568.39 414.214 569.461 411.076 572.192 409.292C574.58 407.731 577.583 407.307 580.366 406.612C583.176 406.014 585.811 404.672 588.039 402.703C590.162 400.63 591.904 398.132 593.173 395.345C596.081 389.203 597.95 382.535 598.69 375.664C599.578 367.692 599.072 359.608 597.2 351.843C597.084 351.354 596.343 351.562 596.459 352.048Z" fill="white"/>
<path d="M595.046 389.871C600.032 391.581 605.321 389.535 607.411 385.114C607.617 384.678 606.905 384.288 606.699 384.724C604.741 388.866 599.846 390.724 595.186 389.126C594.695 388.957 594.558 389.704 595.046 389.871Z" fill="white"/>
<path d="M581.912 405.599C580.636 403.49 579.764 401.119 579.35 398.63C578.935 396.141 578.988 393.586 579.503 391.12C579.609 390.644 578.832 390.446 578.726 390.921C578.195 393.49 578.146 396.149 578.582 398.739C579.018 401.328 579.931 403.794 581.264 405.985C581.525 406.432 582.172 406.043 581.912 405.599Z" fill="white"/>
<path d="M598.585 368.031C597.606 367.91 596.663 367.554 595.824 366.988C594.985 366.423 594.271 365.662 593.731 364.759C593.476 364.31 592.829 364.7 593.083 365.146C593.683 366.14 594.473 366.98 595.399 367.607C596.325 368.234 597.364 368.633 598.445 368.776C598.66 368.805 598.86 368.722 598.903 368.503C598.915 368.395 598.889 368.285 598.83 368.198C598.77 368.11 598.683 368.05 598.585 368.031Z" fill="white"/>
<path d="M622.497 239.57L613.225 185.527L595.024 159.296L581.535 168.952C583.441 180.271 597.859 201.402 597.859 201.402L610.638 243.197C610.587 243.414 610.54 243.634 610.505 243.859C610.303 245.181 610.415 246.538 610.831 247.799C611.248 249.06 611.954 250.182 612.882 251.057C613.81 251.931 614.929 252.529 616.129 252.792C617.33 253.055 618.572 252.975 619.736 252.558C620.9 252.142 621.947 251.404 622.774 250.415C623.601 249.427 624.182 248.221 624.459 246.916C624.737 245.61 624.702 244.248 624.358 242.961C624.014 241.674 623.373 240.506 622.497 239.57Z" fill="#FFB8B8"/>
<path d="M581.898 174.661L597.169 161.09L597.198 161.018C600.054 153.932 593.712 141.78 587.889 132.835C585.967 129.887 583.094 127.848 579.852 127.13C576.609 126.413 573.238 127.07 570.421 128.969C568.352 130.386 566.686 132.408 565.611 134.807C564.536 137.206 564.096 139.886 564.339 142.545L565.623 156.083L581.898 174.661Z" fill="#3F3D56"/>
<path d="M527.926 443.611L517.765 443.61L512.932 400.698L527.928 400.699L527.926 443.611Z" fill="#FFB8B8"/>
<path d="M530.518 439.979L527.658 439.979L516.493 435.007L510.508 439.978H510.507C507.125 439.978 503.882 441.449 501.49 444.068C499.099 446.686 497.755 450.237 497.755 453.94V454.394L530.518 454.395L530.518 439.979Z" fill="#2F2E41"/>
<path d="M573.011 443.611L562.85 443.61L558.017 400.698L573.013 400.699L573.011 443.611Z" fill="#FFB8B8"/>
<path d="M575.603 439.979L572.744 439.979L561.578 435.007L555.593 439.978H555.592C552.21 439.978 548.967 441.449 546.576 444.068C544.184 446.686 542.841 450.237 542.84 453.94V454.394L575.603 454.395L575.603 439.979Z" fill="#2F2E41"/>
<path d="M588.505 258.773C588.505 258.773 589.691 274.362 586.725 289.302C583.759 304.241 583.759 346.316 583.759 346.316L577.233 428.304L557.657 426.355L552.318 289.302L533.335 335.419L535.114 341.915L532.744 343.538C532.744 343.538 534.521 356.205 533.335 356.205C532.148 356.205 529.182 358.153 529.182 358.153L531.555 425.056L511.385 424.407L504.267 330.223L511.979 276.311L512.572 265.918L515.241 266.038L516.601 261.696L519.097 254.226L588.505 258.773Z" fill="#2F2E41"/>
<path d="M589.53 262.047L589.636 261.885C595.282 253.229 586.79 232.429 585.509 229.414L590.904 227.497L589.689 216.19L589.114 211.149L593.237 206.634L593.249 206.522L595.621 183.788L599.072 168.688C600.372 162.98 600.261 156.996 598.751 151.35C597.24 145.704 594.385 140.6 590.478 136.561L582.503 128.328L572.811 112.626H557.182L551.823 123.709C546.627 125.024 542.017 128.293 538.796 132.947C535.576 137.6 533.948 143.343 534.197 149.176L535.411 178.245L530.657 214.438L530.654 220.988L525.303 227.499L526.471 233.896L522.399 235.807L520.601 244.994C519.857 246.069 514.945 253.24 514.945 255.201C514.945 255.495 515.143 255.779 515.569 256.095C518.916 258.577 537.418 263.636 545.606 260.049C554.328 256.23 589.001 261.959 589.35 262.017L589.53 262.047Z" fill="#3F3D56"/>
<path d="M453.614 454.132C453.614 454.362 453.696 454.582 453.844 454.745C453.992 454.908 454.193 454.999 454.402 455H641.114C641.324 455 641.526 454.909 641.674 454.746C641.823 454.583 641.906 454.362 641.906 454.132C641.906 453.902 641.823 453.681 641.674 453.518C641.526 453.356 641.324 453.264 641.114 453.264H454.407C454.197 453.263 453.996 453.354 453.847 453.516C453.699 453.678 453.615 453.897 453.614 454.127V454.132Z" fill="#CCCCCC"/>
<path d="M562.977 107.557C574.409 107.557 583.677 97.4097 583.677 84.8925C583.677 72.3753 574.409 62.2281 562.977 62.2281C551.545 62.2281 542.278 72.3753 542.278 84.8925C542.278 97.4097 551.545 107.557 562.977 107.557Z" fill="#FFB8B8"/>
<path d="M560.994 107.924C564.2 107.888 567.397 107.552 570.55 106.921C573.672 106.133 580.561 100.301 582.438 96.856C583.833 94.2962 584.67 90.3367 585.127 87.4661C585.743 83.6671 585.624 79.7685 584.778 76.023C583.931 72.2774 582.375 68.7683 580.211 65.7229C579.377 64.4471 578.243 63.4419 576.93 62.8136C576.814 62.7676 576.695 62.7274 576.574 62.6934C574.671 62.2022 572.945 61.0993 571.618 59.5263C571.36 59.2078 571.082 58.91 570.785 58.6354C569.297 57.3305 567.548 56.4299 565.68 56.0071C562.664 55.2138 558.349 56.2078 552.855 58.9639C550.096 60.3487 547.032 59.9624 544.671 59.4711C544.539 59.447 544.403 59.4612 544.277 59.5124C544.152 59.5636 544.04 59.6499 543.954 59.7629C542.98 60.8179 541.676 61.4299 540.306 61.4758C539.468 61.5399 538.618 62.8371 537.593 64.5263C537.36 64.9097 537.089 65.3572 536.892 65.6303L536.852 65.1175L536.391 65.7039C535.666 66.6255 535.166 67.7331 534.937 68.9233C534.708 70.1136 534.759 71.3479 535.083 72.5113C535.407 73.6747 535.995 74.7294 536.791 75.5771C537.588 76.4248 538.568 77.038 539.639 77.3595C540.489 77.5816 541.358 77.708 542.231 77.7369C542.76 77.774 543.308 77.8124 543.834 77.8971C545.524 78.2264 547.107 79.0299 548.428 80.2289C549.749 81.428 550.764 82.9818 551.374 84.7385C551.517 85.1445 551.745 85.5089 552.037 85.8035C552.33 86.0981 552.681 86.3151 553.063 86.4377C553.444 86.5603 553.847 86.5852 554.238 86.5106C554.63 86.4359 555.001 86.2637 555.322 86.0072C555.857 85.5266 556.49 85.1948 557.167 85.0399C557.844 84.8851 558.545 84.9118 559.211 85.1179C559.789 85.4491 560.247 85.9882 560.505 86.6447C560.818 87.3753 561.323 87.9874 561.955 88.4027C564.11 89.5432 564.382 94.8579 563.723 99.3133C563.087 103.608 561.705 106.741 560.361 106.932C559.326 107.079 559.209 107.163 559.139 107.366L559.076 107.547L559.197 107.712C559.775 107.924 560.388 107.996 560.994 107.924Z" fill="#2F2E41"/>
<path d="M333.509 224.747C356.241 224.747 374.668 204.57 374.668 179.68C374.668 154.791 356.241 134.614 333.509 134.614C310.778 134.614 292.35 154.791 292.35 179.68C292.35 204.57 310.778 224.747 333.509 224.747Z" fill="#00D4A6"/>
<path d="M556.227 172.973L542.65 163.467C534.005 170.014 522.321 193.081 522.321 193.081L492.75 222.993C491.518 223.224 490.364 223.807 489.403 224.682C488.442 225.557 487.709 226.694 487.277 227.979C486.845 229.263 486.73 230.649 486.942 231.998C487.155 233.346 487.689 234.61 488.489 235.661C489.29 236.712 490.329 237.513 491.503 237.985C492.676 238.456 493.942 238.581 495.173 238.346C496.405 238.111 497.558 237.526 498.517 236.648C499.476 235.77 500.207 234.631 500.636 233.346L541.847 201.911L556.227 172.973Z" fill="#FFB8B8"/>
<path d="M554.932 176.831L563.975 153.069L560.704 139.937C560.054 137.362 558.758 135.037 556.964 133.225C555.17 131.414 552.949 130.188 550.552 129.686C547.298 129.029 543.939 129.75 541.152 131.702C538.365 133.654 536.359 136.692 535.54 140.202C533.064 150.848 531.162 164.687 536.164 170.164L536.215 170.22L554.932 176.831Z" fill="#3F3D56"/>
<path d="M28.3487 441.251C10.6485 431.303 -2.19333 412.08 0.491525 391.537C16.1992 406.39 37.9171 415.134 60.5813 415.729C69.4087 415.961 79.3211 415.322 85.5772 420.966C89.4701 424.479 91.115 429.898 91.1879 435.245C91.2606 440.593 89.922 445.956 88.5921 451.248L88.913 452.525C67.7712 453.263 46.0488 451.198 28.3487 441.251Z" fill="#F2F2F2"/>
<path d="M0.935483 391.501C7.4557 406.591 19.1473 419.386 33.9129 427.15C37.1455 428.94 40.6067 430.185 44.1791 430.843C47.8208 431.388 51.5286 430.988 55.0029 429.674C58.2946 428.509 61.551 426.955 65.0174 426.568C66.7149 426.368 68.4316 426.546 70.0651 427.089C71.6985 427.633 73.215 428.531 74.524 429.731C77.6348 432.558 79.4285 436.382 81.044 440.191C82.8376 444.42 84.6294 448.846 88.2955 451.813C88.7396 452.172 88.0865 452.865 87.643 452.506C81.2647 447.344 80.582 438.387 75.5733 432.229C73.2361 429.355 69.9386 427.217 65.9009 427.402C62.3701 427.564 59.0108 429.164 55.6863 430.372C52.3032 431.7 48.6993 432.22 45.1172 431.895C41.5102 431.421 37.9968 430.312 34.7127 428.611C27.5676 425.06 20.9972 420.261 15.2582 414.401C8.91579 408 3.749 400.33 0.0358401 391.805C-0.189389 391.284 0.71172 390.983 0.935483 391.501Z" fill="white"/>
<path d="M28.957 424.883C25.0768 429.729 18.2476 431.367 13.0094 428.737C12.4933 428.478 12.9447 427.653 13.4615 427.913C15.9681 429.084 18.7468 429.365 21.4068 428.716C24.0668 428.068 26.4744 426.523 28.2908 424.299C28.6725 423.822 29.3366 424.409 28.957 424.883Z" fill="white"/>
<path d="M53.3977 430.474C53.1336 427.561 52.3092 424.743 50.9786 422.205C49.6481 419.666 47.8417 417.465 45.6783 415.746C45.2356 415.385 45.8886 414.692 46.3308 415.052C48.5785 416.846 50.4536 419.141 51.8324 421.786C53.2113 424.431 54.0626 427.365 54.3302 430.396C54.3778 430.974 53.4451 431.048 53.3977 430.474Z" fill="white"/>
<path d="M10.001 407.406C10.8862 406.709 11.5941 405.776 12.0575 404.695C12.5209 403.614 12.7244 402.422 12.6488 401.231C12.5936 400.655 13.5264 400.581 13.5813 401.154C13.6594 402.469 13.4333 403.786 12.924 404.981C12.4147 406.175 11.6385 407.211 10.6672 407.99C10.5791 408.079 10.466 408.133 10.3462 408.143C10.2265 408.153 10.1073 408.119 10.0079 408.045C9.96492 408.006 9.93022 407.958 9.90617 407.903C9.88213 407.848 9.86933 407.788 9.86868 407.727C9.86803 407.666 9.87953 407.606 9.90239 407.551C9.92525 407.495 9.95889 407.446 10.001 407.406Z" fill="white"/>
<path d="M61.0424 350.007C61.0875 350.365 61.1326 350.723 61.1846 351.085C61.8153 355.886 62.8545 360.612 64.2885 365.202C64.3934 365.559 64.5054 365.918 64.6208 366.271C68.2615 377.389 73.9931 387.546 81.4449 396.086C84.4803 399.575 87.7703 402.787 91.2822 405.691C96.1774 409.745 101.847 413.736 104.865 419.073C105.185 419.624 105.47 420.199 105.716 420.793L90.5234 451.927C90.4536 451.983 90.3906 452.043 90.3206 452.1L89.7705 453.366C89.5758 453.228 89.3773 453.08 89.1826 452.942C89.0693 452.862 88.9594 452.776 88.8461 452.696C88.7717 452.641 88.6973 452.585 88.6266 452.539C88.6017 452.521 88.577 452.502 88.5592 452.487C88.4884 452.441 88.4282 452.392 88.3645 452.349C87.2522 451.527 86.1446 450.696 85.0415 449.855C85.0345 449.852 85.0345 449.852 85.0308 449.842C76.6447 443.414 68.791 436.206 62.4052 427.982C62.2132 427.735 62.0139 427.485 61.8288 427.223C58.9914 423.529 56.4695 419.557 54.2946 415.359C53.1234 413.076 52.0738 410.721 51.151 408.305C48.784 402.065 47.4673 395.407 47.2643 388.654C46.8488 375.126 50.9104 361.293 60.3162 350.802C60.557 350.534 60.7946 350.273 61.0424 350.007Z" fill="#F2F2F2"/>
<path d="M61.4014 350.236C56.9412 366.795 57.8015 384.453 64.1009 399.672C65.405 403.048 67.2464 406.144 69.5394 408.814C72.0022 411.448 75.0699 413.303 78.4172 414.182C81.6202 415.131 85.0378 415.731 87.8887 417.44C89.2878 418.269 90.4879 419.448 91.3909 420.882C92.2938 422.316 92.8741 423.963 93.0841 425.69C93.6718 429.901 92.6479 434.18 91.4993 438.342C90.2239 442.963 88.8252 447.749 89.7439 452.404C89.8552 452.969 88.9329 453.17 88.8218 452.607C87.2235 444.507 92.272 436.549 92.3236 428.413C92.3476 424.616 91.1924 420.876 88.0362 418.662C85.2763 416.726 81.7528 416.104 78.499 415.172C75.208 414.353 72.1501 412.664 69.5924 410.253C67.1626 407.724 65.1953 404.71 63.7957 401.374C60.5791 394.02 58.6046 386.089 57.9676 377.965C57.1939 368.537 58.0652 359.035 60.535 349.964C60.6891 349.392 61.5544 349.667 61.4014 350.236Z" fill="white"/>
<path d="M61.776 394.85C55.8444 396.661 49.6834 394.034 47.3716 388.74C47.1438 388.219 47.9957 387.788 48.2238 388.31C50.3895 393.27 56.0921 395.659 61.6369 393.966C62.2204 393.788 62.3561 394.673 61.776 394.85Z" fill="white"/>
<path d="M76.7117 413.915C78.2873 411.483 79.3951 408.725 79.9679 405.81C80.5407 402.895 80.5665 399.883 80.0437 396.957C79.9345 396.392 80.8567 396.191 80.9658 396.755C81.5037 399.802 81.4705 402.937 80.8682 405.97C80.2659 409.002 79.1071 411.869 77.462 414.397C77.1392 414.912 76.3906 414.427 76.7117 413.915Z" fill="white"/>
<path d="M58.352 368.977C59.5094 368.874 60.6318 368.493 61.6393 367.861C62.6468 367.229 63.5147 366.362 64.1811 365.321C64.4973 364.802 65.2456 365.288 64.9315 365.803C64.1908 366.95 63.2312 367.907 62.1191 368.608C61.007 369.309 59.7691 369.736 58.4911 369.861C58.2374 369.885 58.0043 369.779 57.9605 369.52C57.9502 369.392 57.9849 369.264 58.0577 369.163C58.1305 369.062 58.2358 368.996 58.352 368.977Z" fill="white"/>
<path d="M114.589 193.971L115.923 207.512L115.138 225.267L151.057 220.595L154.432 193.971L150.132 194.017L114.589 193.971Z" fill="#FFB6B6"/>
<path d="M95.9594 439.807H103.812L107.55 406.642H95.9594V439.807Z" fill="#FFB6B6"/>
<path d="M93.3965 433.917L105.942 433.098V438.983L117.87 448.003C118.459 448.448 118.903 449.088 119.137 449.829C119.37 450.57 119.381 451.374 119.168 452.122C118.955 452.871 118.529 453.525 117.952 453.989C117.376 454.454 116.678 454.705 115.962 454.705H101.026L98.4514 448.883L97.4462 454.705H91.8146L93.3965 433.917Z" fill="#2F2E41"/>
<path d="M140.07 439.807H147.923L151.66 406.642H140.07V439.807Z" fill="#FFB6B6"/>
<path d="M137.508 433.917L150.053 433.098V438.983L161.981 448.003C162.57 448.448 163.014 449.088 163.248 449.829C163.481 450.57 163.492 451.374 163.279 452.122C163.066 452.871 162.64 453.525 162.063 453.989C161.487 454.454 160.789 454.705 160.073 454.705H145.137L142.562 448.883L141.557 454.705H135.926L137.508 433.917Z" fill="#2F2E41"/>
<path d="M92.5711 411.206H92.6565L94.1668 357.281C93.1894 355.216 92.6934 352.92 92.7229 350.595C92.7524 348.27 93.3064 345.989 94.3357 343.956L94.552 343.527L93.9913 340.681C93.2712 337.026 93.6017 333.215 94.9373 329.773L96.3462 279.471C91.3127 243.752 115.301 220.458 115.301 220.458H151.236L158.951 249.48C164.051 303.887 163.126 356.904 155.032 408.269L155.253 408.391C156.047 408.692 156.388 409.897 156.014 411.083C155.64 412.269 154.693 412.988 153.899 412.687L134.921 411.965C134.126 411.664 133.786 410.459 134.16 409.273C134.534 408.087 135.481 407.368 136.275 407.669L137.566 408.383L134.814 356.347L135.119 346.842L134.49 336.059L131.581 287.558L120.57 347.201L109.323 411.807C109.633 412.114 109.851 412.517 109.948 412.963C110.044 413.409 110.015 413.877 109.864 414.304C109.713 414.731 109.447 415.098 109.101 415.357C108.756 415.615 108.347 415.752 107.928 415.751H92.5711C92.2983 415.752 92.028 415.693 91.7758 415.579C91.5236 415.465 91.2943 415.298 91.1012 415.087C90.9081 414.876 90.7549 414.625 90.6504 414.349C90.5459 414.073 90.4921 413.777 90.4921 413.479C90.4921 413.18 90.5459 412.884 90.6504 412.608C90.7549 412.332 90.9081 412.082 91.1012 411.87C91.2943 411.659 91.5236 411.492 91.7758 411.378C92.028 411.264 92.2983 411.206 92.5711 411.206Z" fill="#2F2E41"/>
<path d="M120.862 124.682C131.507 124.682 140.136 115.234 140.136 103.578C140.136 91.9223 131.507 82.4736 120.862 82.4736C110.217 82.4736 101.587 91.9223 101.587 103.578C101.587 115.234 110.217 124.682 120.862 124.682Z" fill="#FFB6B6"/>
<path d="M36.4018 201.079C39.1107 194.193 42.8306 187.839 47.414 182.269C43.5328 189.042 41.3147 196.797 40.9745 204.784C42.3796 205.745 43.8499 206.587 45.3723 207.303C49.9477 209.404 54.8261 210.604 59.7826 210.847C62.4541 201.102 67.0651 192.126 73.2839 184.565C68.8022 192.391 66.5484 201.5 66.8094 210.732C72.3379 210.209 77.7849 208.931 83.0236 206.928C90.8895 203.965 98.5246 199.54 103.964 192.657C109.851 185.208 112.753 175.379 113.69 165.579C114.627 155.788 113.746 145.904 112.858 136.105C112.438 131.435 115.99 126.061 115.571 121.391H115.291C113.424 118.589 111.523 115.718 110.607 112.395C109.698 109.081 109.935 105.169 112.026 102.558C113.197 101.194 114.675 100.191 116.312 99.6488C116.466 99.4344 116.634 99.2277 116.808 99.021C119.974 95.339 123.7 92.2875 127.821 90.0026C124.849 92.4601 122.863 95.2391 121.94 98.11C124.513 97.4899 127.086 96.8723 129.659 96.2573C130.519 95.2585 131.425 94.308 132.372 93.4094C133.75 92.1003 134.204 92.0007 135.847 90.7682C134.521 92.0459 133.492 93.6523 132.848 95.4535C136.155 94.5424 139.462 93.1721 141.182 90.0562C144.035 84.9039 140.644 77.9526 135.91 74.875C132.467 72.7453 128.499 71.8544 124.568 72.3283C120.638 72.8023 116.942 74.6171 114.005 77.5162C107.16 71.9964 97.4129 72.0883 89.7987 76.2148C84.772 79.0608 80.4419 83.1851 77.1714 88.2418C79.0685 87.9752 80.9782 87.8295 82.8908 87.8054C80.1985 88.2368 77.6348 89.3481 75.4024 91.0514C74.4149 92.7304 73.5093 94.4656 72.6896 96.2496C72.1512 97.4209 71.6432 98.6076 71.1654 99.8095C68.2358 107.113 66.327 114.891 64.3483 122.577C62.041 131.535 59.5659 140.553 55.2448 148.568C48.6197 160.756 38.1686 169.887 25.844 174.253C24.8162 184.382 29.3329 194.288 36.4018 201.079Z" fill="#2F2E41"/>
<path d="M140.271 138.795L136.53 137.257L131.813 128.906L115.01 130.409L110.926 139.364L101.088 147.591L105.39 172.402L112.075 202.541L156.823 196.416L156.776 173.729C156.776 173.729 164.862 155.804 151.8 149.087L140.271 138.795Z" fill="#00D4A6"/>
<path d="M209.246 217.493C208.377 217.875 207.443 218.044 206.508 217.987C205.574 217.931 204.662 217.651 203.837 217.167C203.012 216.683 202.293 216.006 201.733 215.185C201.172 214.365 200.783 213.419 200.592 212.416L150.699 179.359L159.818 167.838L205.995 203.954C207.555 203.715 209.142 204.111 210.454 205.068C211.766 206.024 212.712 207.474 213.112 209.142C213.513 210.811 213.341 212.583 212.628 214.122C211.916 215.661 210.712 216.861 209.246 217.493Z" fill="#FFB6B6"/>
<path d="M134.073 163.684C134.073 163.684 131.689 166.31 137.672 170.63C142.462 174.088 163.826 191.176 171.4 193.879C171.305 195.097 171.583 196.315 172.19 197.341C172.797 198.367 173.698 199.143 174.752 199.546L181.609 183.046C180.125 179.274 177.751 180.148 176.502 181.003L168.22 174.183L147.883 151.948L135.766 161.751L134.073 163.684Z" fill="#00D4A6"/>
<path d="M114.127 78.0905C111.81 81.8336 110.314 86.1116 109.753 90.5916C109.193 95.0715 109.585 99.6326 110.898 103.92" fill="#FD6584"/>
<path d="M16.3406 454.132C16.3403 454.246 16.3606 454.359 16.4003 454.465C16.44 454.57 16.4984 454.666 16.5721 454.747C16.6458 454.827 16.7333 454.891 16.8296 454.935C16.9259 454.978 17.0291 455 17.1333 455H203.84C204.05 455 204.252 454.909 204.401 454.746C204.549 454.583 204.633 454.362 204.633 454.132C204.633 453.902 204.549 453.681 204.401 453.518C204.252 453.356 204.05 453.264 203.84 453.264H17.1333C17.0291 453.264 16.9259 453.286 16.8296 453.33C16.7333 453.373 16.6458 453.437 16.5721 453.518C16.4984 453.598 16.44 453.694 16.4003 453.8C16.3606 453.905 16.3403 454.018 16.3406 454.132Z" fill="#CCCCCC"/>
<path d="M87.4762 256.86C87.0109 257.039 86.6297 257.413 86.416 257.9C86.2023 258.387 86.1737 258.947 86.3365 259.457L112.349 341.546C112.513 342.056 112.854 342.473 113.299 342.707C113.744 342.941 114.255 342.972 114.72 342.794L266.076 284.648C266.542 284.469 266.923 284.095 267.137 283.608C267.35 283.121 267.379 282.561 267.216 282.051L241.204 199.962C241.04 199.452 240.698 199.035 240.253 198.801C239.809 198.567 239.297 198.535 238.832 198.714L87.4762 256.86Z" fill="#E6E6E6"/>
<path d="M125.786 330.947C122.808 330.946 119.902 329.935 117.47 328.053C115.037 326.171 113.196 323.51 112.2 320.436L97.9149 276.182C96.6426 272.241 96.8523 267.907 98.498 264.135C100.144 260.363 103.091 257.461 106.69 256.068L183.187 226.464C197.507 220.942 213.242 221.865 226.941 229.03C240.64 236.195 251.184 249.018 256.259 264.685C257.532 268.626 257.322 272.96 255.676 276.732C254.031 280.504 251.084 283.406 247.484 284.799L130.57 330.045C129.034 330.641 127.416 330.946 125.786 330.947Z" fill="white"/>
<path d="M227.23 243.711L158.734 270.025C157.769 270.396 156.573 269.405 156.062 267.812C155.552 266.22 155.92 264.628 156.886 264.257L225.382 237.943C226.347 237.572 227.543 238.563 228.053 240.156C228.563 241.749 228.195 243.342 227.23 243.711Z" fill="#E6E6E6"/>
<path d="M232.528 260.245L164.032 286.559C163.067 286.93 161.87 285.939 161.36 284.346C160.85 282.754 161.218 281.162 162.183 280.791L230.679 254.477C231.644 254.107 232.841 255.097 233.351 256.69C233.861 258.283 233.493 259.875 232.528 260.245Z" fill="#E6E6E6"/>
<path d="M149.466 279.021C150.201 281.29 150.558 283.686 150.521 286.093C150.506 287.195 150.407 288.293 150.223 289.377C149.639 292.877 148.222 296.146 146.114 298.854C144.006 301.562 141.282 303.613 138.218 304.799C135.154 305.984 131.859 306.263 128.665 305.607C125.471 304.951 122.492 303.383 120.029 301.062C119.78 300.829 119.538 300.588 119.302 300.34C117.291 298.23 115.742 295.648 114.772 292.788C113.802 289.928 113.436 286.865 113.701 283.828C113.967 280.792 114.857 277.86 116.305 275.254C117.753 272.648 119.721 270.434 122.062 268.78C124.403 267.125 127.055 266.073 129.821 265.701C132.586 265.329 135.392 265.648 138.029 266.633C140.666 267.619 143.064 269.245 145.045 271.391C147.026 273.536 148.537 276.144 149.466 279.021Z" fill="#E4E4E4"/>
<path d="M132.837 288.839C134.785 288.839 136.364 287.11 136.364 284.977C136.364 282.844 134.785 281.115 132.837 281.115C130.889 281.115 129.31 282.844 129.31 284.977C129.31 287.11 130.889 288.839 132.837 288.839Z" fill="#FD6584"/>
<path d="M119.302 300.34C120.208 298.039 121.278 294.529 123.757 295.807C124.982 296.388 127.176 298.155 128.066 296.1L135.04 280.115C135.173 279.817 135.358 279.551 135.585 279.333C135.813 279.114 136.078 278.947 136.365 278.843C136.652 278.738 136.955 278.697 137.257 278.722C137.559 278.748 137.853 278.839 138.122 278.99L150.521 286.093C150.506 287.195 150.407 288.293 150.223 289.377L120.029 301.062L119.302 300.34Z" fill="#3F3D56"/>
<path d="M122.902 253.135C122.029 252.763 121.242 252.187 120.595 251.446C119.948 250.706 119.457 249.819 119.157 248.848C118.857 247.877 118.755 246.846 118.858 245.827C118.961 244.809 119.267 243.827 119.754 242.952L103.97 181.482L117.819 179.898L128.98 240.819C130.268 241.812 131.179 243.289 131.54 244.968C131.9 246.648 131.686 248.414 130.937 249.933C130.187 251.451 128.956 252.615 127.475 253.205C125.994 253.795 124.367 253.77 122.902 253.135Z" fill="#FFB6B6"/>
<path d="M101.635 147.739C101.635 147.739 98.2547 147.872 99.9255 155.502C101.263 161.611 106.176 199.932 110.017 207.573C109.187 208.391 108.63 209.489 108.432 210.692C108.235 211.895 108.409 213.136 108.926 214.219L124.232 207.307C125.503 203.443 124.518 199.935 123.073 199.624L121.284 188.448L118.649 150.956L104.077 147.595L101.635 147.739Z" fill="#00D4A6"/>
<path d="M239.508 309.473L218.341 310.433C217.889 310.455 217.438 310.364 217.023 310.168C216.607 309.971 216.238 309.674 215.942 309.299C215.65 308.934 215.437 308.501 215.32 308.033C215.203 307.564 215.184 307.073 215.264 306.596C216.889 296.897 216.415 286.918 213.882 277.456C213.687 276.732 213.726 275.957 213.995 275.262C214.263 274.566 214.743 273.995 215.353 273.644C224.023 268.712 232.147 268.462 239.497 272.899C239.882 273.129 240.217 273.447 240.478 273.832C240.74 274.218 240.921 274.661 241.01 275.131C242.923 285.456 243.382 296.041 242.37 306.517C242.3 307.306 241.972 308.04 241.445 308.583C240.919 309.126 240.231 309.443 239.508 309.473Z" fill="#00D4A6"/>
<path d="M238.612 294.304L222.428 295.038C222.228 295.048 222.029 295.014 221.842 294.939C221.654 294.863 221.482 294.749 221.335 294.601C221.188 294.453 221.069 294.274 220.985 294.076C220.901 293.878 220.854 293.663 220.846 293.445C220.837 293.226 220.868 293.008 220.937 292.803C221.006 292.598 221.111 292.41 221.246 292.249C221.381 292.088 221.544 291.958 221.726 291.866C221.907 291.774 222.103 291.723 222.302 291.714L238.487 290.98C238.686 290.971 238.885 291.005 239.072 291.08C239.26 291.155 239.432 291.27 239.579 291.418C239.725 291.566 239.844 291.744 239.928 291.942C240.012 292.14 240.06 292.355 240.068 292.573C240.076 292.791 240.045 293.009 239.976 293.215C239.908 293.42 239.803 293.608 239.668 293.769C239.532 293.93 239.37 294.06 239.189 294.151C239.008 294.243 238.812 294.295 238.612 294.304Z" fill="white"/>
<path d="M238.392 288.474L222.207 289.208C221.805 289.227 221.412 289.069 221.115 288.77C220.819 288.471 220.643 288.056 220.626 287.615C220.61 287.174 220.754 286.744 221.027 286.419C221.299 286.095 221.679 285.902 222.082 285.884L238.266 285.15C238.669 285.132 239.062 285.289 239.358 285.588C239.655 285.887 239.831 286.302 239.847 286.743C239.864 287.184 239.72 287.614 239.447 287.939C239.174 288.264 238.795 288.456 238.392 288.474Z" fill="white"/>
<path d="M626.629 128.175L605.624 125.158C605.175 125.095 604.745 124.921 604.366 124.649C603.987 124.378 603.67 124.016 603.437 123.592C603.206 123.177 603.064 122.71 603.022 122.227C602.979 121.744 603.037 121.256 603.191 120.801C606.306 111.55 607.398 101.628 606.379 91.8314C606.3 91.0818 606.46 90.3252 606.833 89.6905C607.205 89.0558 607.768 88.5822 608.424 88.3507C617.736 85.1142 625.779 86.3885 632.328 92.1371C632.672 92.435 632.953 92.8114 633.15 93.2401C633.347 93.6688 633.457 94.1395 633.471 94.6193C633.744 105.15 632.543 115.665 629.91 125.798C629.718 126.561 629.28 127.223 628.677 127.66C628.073 128.097 627.346 128.28 626.629 128.175Z" fill="#00D4A6"/>
<path d="M628.115 113.061L612.054 110.755C611.856 110.726 611.665 110.656 611.493 110.546C611.32 110.437 611.168 110.292 611.047 110.119C610.925 109.945 610.836 109.748 610.784 109.537C610.732 109.326 610.719 109.105 610.745 108.889C610.771 108.672 610.836 108.463 610.935 108.274C611.035 108.085 611.168 107.919 611.326 107.786C611.484 107.653 611.665 107.555 611.858 107.498C612.05 107.442 612.251 107.427 612.449 107.456L628.51 109.762C628.91 109.819 629.272 110.048 629.518 110.398C629.763 110.748 629.871 111.191 629.819 111.628C629.767 112.066 629.558 112.462 629.238 112.731C628.918 113 628.514 113.119 628.115 113.061Z" fill="white"/>
<path d="M628.808 107.276L612.747 104.97C612.549 104.942 612.358 104.871 612.184 104.762C612.011 104.653 611.859 104.508 611.737 104.334C611.616 104.161 611.526 103.963 611.474 103.752C611.422 103.54 611.409 103.32 611.435 103.103C611.461 102.886 611.526 102.677 611.626 102.488C611.726 102.298 611.859 102.132 612.017 101.999C612.176 101.866 612.357 101.768 612.55 101.712C612.743 101.656 612.944 101.641 613.142 101.67L629.203 103.977C629.401 104.005 629.592 104.075 629.765 104.184C629.939 104.293 630.091 104.439 630.212 104.612C630.334 104.785 630.424 104.983 630.476 105.195C630.527 105.406 630.541 105.626 630.515 105.843C630.489 106.06 630.424 106.269 630.324 106.459C630.224 106.648 630.091 106.814 629.933 106.947C629.774 107.08 629.593 107.178 629.4 107.234C629.207 107.291 629.006 107.305 628.808 107.276Z" fill="white"/>
<path d="M346.832 172.751H339.838V165.093C339.838 163.255 339.171 161.493 337.984 160.193C336.797 158.894 335.188 158.164 333.509 158.164C331.831 158.164 330.222 158.894 329.035 160.193C327.848 161.493 327.181 163.255 327.181 165.093V172.751H320.187C318.509 172.751 316.899 173.481 315.712 174.781C314.526 176.08 313.859 177.842 313.859 179.68C313.859 181.518 314.526 183.28 315.712 184.58C316.899 185.879 318.509 186.609 320.187 186.609H327.181V194.267C327.181 196.105 327.848 197.867 329.035 199.167C330.222 200.466 331.831 201.196 333.509 201.196C335.188 201.196 336.797 200.466 337.984 199.167C339.171 197.867 339.838 196.105 339.838 194.267V186.609H346.832C348.51 186.609 350.12 185.879 351.307 184.58C352.493 183.28 353.16 181.518 353.16 179.68C353.16 177.842 352.493 176.08 351.307 174.781C350.12 173.481 348.51 172.751 346.832 172.751Z" fill="white"/>
<path d="M573.336 31.0231C577.019 31.0231 580.005 27.7539 580.005 23.7212C580.005 19.6884 577.019 16.4193 573.336 16.4193C569.653 16.4193 566.667 19.6884 566.667 23.7212C566.667 27.7539 569.653 31.0231 573.336 31.0231Z" fill="#3F3D56"/>
<path d="M163.672 237.432C167.355 237.432 170.341 234.162 170.341 230.13C170.341 226.097 167.355 222.828 163.672 222.828C159.989 222.828 157.003 226.097 157.003 230.13C157.003 234.162 159.989 237.432 163.672 237.432Z" fill="#3F3D56"/>
</g>
<defs>
<clipPath id="clip0_71_522">
<rect width="659" height="455" fill="white"/>
</clipPath>
</defs>
</svg>
